<?xml version="1.0" encoding="utf-8"?>
<!-- Generator: Adobe Illustrator 16.0.0, SVG Export Plug-In . SVG Version: 6.00 Build 0)  -->
<!DOCTYPE svg PUBLIC "-//W3C//DTD SVG 1.1//EN" "http://www.w3.org/Graphics/SVG/1.1/DTD/svg11.dtd">
<svg version="1.1" id="Layer_1" xmlns="http://www.w3.org/2000/svg" xmlns:xlink="http://www.w3.org/1999/xlink" x="0px" y="0px"
	 width="640px" height="229px" viewBox="0 0 640 229" enable-background="new 0 0 640 229" xml:space="preserve">
<path fill="#FF9900" d="M146.969,155.553c0,12.769-3.239,24.104-9.716,34.008c-6.479,9.907-15.821,17.604-28.024,23.096
	c-12.205,5.493-26.525,8.239-42.953,8.239c-13.708,0-25.208-0.965-34.502-2.887c-9.295-1.923-18.964-5.281-29.01-10.069v-49.57
	c10.608,5.445,21.639,9.695,33.094,12.744c11.454,3.051,21.969,4.577,31.545,4.577c8.26,0,14.315-1.431,18.167-4.295
	c3.849-2.865,5.773-6.549,5.773-11.056c0-2.816-0.774-5.28-2.323-7.393c-1.549-2.113-4.037-4.246-7.464-6.408
	c-3.429-2.159-12.557-6.57-27.391-13.238c-13.427-6.102-23.496-12.017-30.208-17.743c-6.712-5.725-11.688-12.299-14.927-19.716
	c-3.24-7.415-4.859-16.195-4.859-26.334c0-18.963,6.901-33.75,20.702-44.36C38.675,14.538,57.637,9.234,81.767,9.234
	c21.312,0,43.043,4.929,65.202,14.787l-17.04,42.952c-19.246-8.823-35.863-13.238-49.852-13.238c-7.231,0-12.486,1.268-15.772,3.802
	c-3.289,2.535-4.93,5.682-4.93,9.436c0,4.037,2.089,7.654,6.267,10.844c4.175,3.191,15.513,9.012,34.009,17.462
	c17.745,7.98,30.067,16.547,36.967,25.7C143.52,130.133,146.969,141.658,146.969,155.553z"/>
<path fill="#FF9900" d="M223.344,169.917c1.218-9.577,33.517-157.726,33.517-157.726h51.542c0,0,31.918,149.651,32.953,157.726
	c1.22-10.421-17.483-157.726-17.483-157.726h52.877l0.377,205.887h-65.766c0,0-27.651-132.608-28.588-140.122
	c-0.752,6.105-17.133,86.138-29.151,140.122h-65.766l0.04-205.887h53.654"/>
<path fill="#FF9900" d="M416.386,218.078V12.191h55.908v205.887H416.386z"/>
<path display="none" fill="#FF9900" d="M263.764,124.52h-13.676V73.121h30.375v11.145h-16.699v9.809h15.398v11.145h-15.398V124.52z"
	/>
<rect x="512.789" y="96.123" fill="#FF9900" width="121.674" height="44.642"/>
<rect x="512.789" y="12.191" fill="#FF9900" width="121.674" height="44.642"/>
</svg>
